M48
;Layer_Color=9474304
;FILE_FORMAT=2:5
INCH,LZ
;TYPE=PLATED
T1F00S00C0.03346
T2F00S00C0.03543
T3F00S00C0.04331
T4F00S00C0.05000
%
T01
X026Y0425
X029
X03225
X03525
X0385
X0415
X04475
X04775
X051
X054
T02
X0476476Y04725
X0511024
X0538976
Y05225
X0511024
X0476476
Y05725
X0511024
X0538976
Y06225
X0511024
X0476476
X0448524
X0413976
X0386024
X0351476
X0323524
Y05725
X0351476
X0386024
X0413976
X0448524
Y05225
X0413976
X0386024
X0351476
X0323524
Y04725
X0351476
X0386024
X0413976
X0448524
X0288976
X0261024
Y05225
X0288976
Y05725
X0261024
Y06225
X0288976
Y06725
X0261024
X0323524
X0351476
X0386024
X0413976
X0448524
X0476476
X0511024
X0538976
T03
X025Y04525
X03125
X0375
X04375
X05
Y04725
Y05025
Y05225
Y05525
Y05725
Y06025
Y06225
X04375
Y06025
Y05725
Y05525
Y05225
Y05025
Y04725
X0375
Y05025
Y05225
Y05525
Y05725
Y06025
Y06225
X03125
Y06025
Y05725
Y05525
Y05225
Y05025
Y04725
X025
Y05025
Y05225
Y05525
Y05725
Y06025
Y06225
Y06525
Y06725
X03125
Y06525
X0375
Y06725
X04375
Y06525
X05
Y06725
T04
X0225Y04
Y04525
X029Y04
X03525
X0415
X04775
X054
X0225Y05025
Y05525
Y06025
Y06525
M30
