%FSLAX25Y25*%
%MOIN*%
G70*
G01*
G75*
G04 Layer_Color=8388736*
%ADD10C,0.05000*%
%ADD11C,0.05512*%
%ADD12C,0.07284*%
%ADD13R,0.07284X0.07284*%
%ADD14C,0.05906*%
%ADD15R,0.05906X0.05906*%
%ADD16C,0.08000*%
%ADD17C,0.00984*%
%ADD18C,0.00787*%
%ADD19C,0.01000*%
%ADD20R,0.03150X0.07480*%
%ADD21C,0.06312*%
%ADD22C,0.08083*%
%ADD23R,0.08083X0.08083*%
%ADD24C,0.06706*%
%ADD25R,0.06706X0.06706*%
%ADD26C,0.08800*%
D21*
X260000Y425000D02*
D03*
X290000D02*
D03*
X447500D02*
D03*
X477500D02*
D03*
X322500D02*
D03*
X352500D02*
D03*
X385000D02*
D03*
X415000D02*
D03*
X510000D02*
D03*
X540000D02*
D03*
D22*
X312500Y472500D02*
D03*
X250000D02*
D03*
X500000D02*
D03*
X375000D02*
D03*
X437500D02*
D03*
Y672500D02*
D03*
X375000Y572500D02*
D03*
X312500Y672500D02*
D03*
Y572500D02*
D03*
X250000D02*
D03*
Y672500D02*
D03*
X437500Y622500D02*
D03*
X375000D02*
D03*
X437500Y572500D02*
D03*
X500000Y622500D02*
D03*
Y522500D02*
D03*
X312500Y622500D02*
D03*
X375000Y672500D02*
D03*
X250000Y622500D02*
D03*
X500000Y572500D02*
D03*
Y672500D02*
D03*
X437500Y522500D02*
D03*
X312500D02*
D03*
X375000D02*
D03*
X250000D02*
D03*
D23*
X312500Y452500D02*
D03*
X250000D02*
D03*
X500000D02*
D03*
X375000D02*
D03*
X437500D02*
D03*
Y652500D02*
D03*
X375000Y552500D02*
D03*
X312500Y652500D02*
D03*
Y552500D02*
D03*
X250000D02*
D03*
Y652500D02*
D03*
X437500Y602500D02*
D03*
X375000D02*
D03*
X437500Y552500D02*
D03*
X500000Y602500D02*
D03*
Y502500D02*
D03*
X312500Y602500D02*
D03*
X375000Y652500D02*
D03*
X250000Y602500D02*
D03*
X500000Y552500D02*
D03*
Y652500D02*
D03*
X437500Y502500D02*
D03*
X312500D02*
D03*
X375000D02*
D03*
X250000D02*
D03*
D24*
X511024Y622500D02*
D03*
Y522500D02*
D03*
X386024Y672500D02*
D03*
Y622500D02*
D03*
X448524Y572500D02*
D03*
X511024Y672500D02*
D03*
X323524Y622500D02*
D03*
X386024Y572500D02*
D03*
X448524Y622500D02*
D03*
Y672500D02*
D03*
X511024Y572500D02*
D03*
Y472500D02*
D03*
X448524Y522500D02*
D03*
Y472500D02*
D03*
X386024Y522500D02*
D03*
X261024Y572500D02*
D03*
Y672500D02*
D03*
X323524Y522500D02*
D03*
X261024Y472500D02*
D03*
X323524Y572500D02*
D03*
X386024Y472500D02*
D03*
X323524Y672500D02*
D03*
X261024Y522500D02*
D03*
X323524Y472500D02*
D03*
X261024Y622500D02*
D03*
D25*
X538976D02*
D03*
Y522500D02*
D03*
X413976Y672500D02*
D03*
Y622500D02*
D03*
X476476Y572500D02*
D03*
X538976Y672500D02*
D03*
X351476Y622500D02*
D03*
X413976Y572500D02*
D03*
X476476Y622500D02*
D03*
Y672500D02*
D03*
X538976Y572500D02*
D03*
Y472500D02*
D03*
X476476Y522500D02*
D03*
Y472500D02*
D03*
X413976Y522500D02*
D03*
X288976Y572500D02*
D03*
Y672500D02*
D03*
X351476Y522500D02*
D03*
X288976Y472500D02*
D03*
X351476Y572500D02*
D03*
X413976Y472500D02*
D03*
X351476Y672500D02*
D03*
X288976Y522500D02*
D03*
X351476Y472500D02*
D03*
X288976Y622500D02*
D03*
D26*
X225000Y652500D02*
D03*
Y602500D02*
D03*
Y552500D02*
D03*
Y502500D02*
D03*
Y452500D02*
D03*
X290000Y400000D02*
D03*
X352500D02*
D03*
X415000D02*
D03*
X477500D02*
D03*
X540000D02*
D03*
X225000D02*
D03*
M02*
