%FSLAX25Y25*%
%MOIN*%
G70*
G01*
G75*
G04 Layer_Color=65535*
%ADD10C,0.05000*%
%ADD11C,0.05512*%
%ADD12C,0.07284*%
%ADD13R,0.07284X0.07284*%
%ADD14C,0.05906*%
%ADD15R,0.05906X0.05906*%
%ADD16C,0.08000*%
%ADD17C,0.00984*%
%ADD18C,0.00787*%
%ADD19C,0.01000*%
%ADD20R,0.03150X0.07480*%
D17*
X312996Y443756D02*
G03*
X312996Y443756I-492J0D01*
G01*
X250496D02*
G03*
X250496Y443756I-492J0D01*
G01*
X500496D02*
G03*
X500496Y443756I-492J0D01*
G01*
X375496D02*
G03*
X375496Y443756I-492J0D01*
G01*
X437996D02*
G03*
X437996Y443756I-492J0D01*
G01*
Y643756D02*
G03*
X437996Y643756I-492J0D01*
G01*
X375496Y543756D02*
G03*
X375496Y543756I-492J0D01*
G01*
X312996Y643756D02*
G03*
X312996Y643756I-492J0D01*
G01*
Y543756D02*
G03*
X312996Y543756I-492J0D01*
G01*
X250496D02*
G03*
X250496Y543756I-492J0D01*
G01*
Y643756D02*
G03*
X250496Y643756I-492J0D01*
G01*
X437996Y593756D02*
G03*
X437996Y593756I-492J0D01*
G01*
X375496D02*
G03*
X375496Y593756I-492J0D01*
G01*
X437996Y543756D02*
G03*
X437996Y543756I-492J0D01*
G01*
X500496Y593756D02*
G03*
X500496Y593756I-492J0D01*
G01*
Y493756D02*
G03*
X500496Y493756I-492J0D01*
G01*
X312996Y593756D02*
G03*
X312996Y593756I-492J0D01*
G01*
X375496Y643756D02*
G03*
X375496Y643756I-492J0D01*
G01*
X250496Y593756D02*
G03*
X250496Y593756I-492J0D01*
G01*
X500496Y543756D02*
G03*
X500496Y543756I-492J0D01*
G01*
Y643756D02*
G03*
X500496Y643756I-492J0D01*
G01*
X437996Y493756D02*
G03*
X437996Y493756I-492J0D01*
G01*
X312996D02*
G03*
X312996Y493756I-492J0D01*
G01*
X375496D02*
G03*
X375496Y493756I-492J0D01*
G01*
X250496D02*
G03*
X250496Y493756I-492J0D01*
G01*
D18*
X285000Y425000D02*
X285900D01*
X264100D02*
X265000D01*
X285000Y422000D02*
Y425000D01*
X265000Y422000D02*
X285000D01*
X265000D02*
Y428000D01*
X285000D01*
Y425000D02*
Y428000D01*
X307500Y445650D02*
X317500D01*
Y479350D01*
X307500D02*
X317500D01*
X307500Y445650D02*
Y479350D01*
X472500Y425000D02*
X473400D01*
X451600D02*
X452500D01*
X472500Y422000D02*
Y425000D01*
X452500Y422000D02*
X472500D01*
X452500D02*
Y428000D01*
X472500D01*
Y425000D02*
Y428000D01*
X347500Y425000D02*
X348400D01*
X326600D02*
X327500D01*
X347500Y422000D02*
Y425000D01*
X327500Y422000D02*
X347500D01*
X327500D02*
Y428000D01*
X347500D01*
Y425000D02*
Y428000D01*
X245000Y445650D02*
X255000D01*
Y479350D01*
X245000D02*
X255000D01*
X245000Y445650D02*
Y479350D01*
X495000Y445650D02*
X505000D01*
Y479350D01*
X495000D02*
X505000D01*
X495000Y445650D02*
Y479350D01*
X370000Y445650D02*
X380000D01*
Y479350D01*
X370000D02*
X380000D01*
X370000Y445650D02*
Y479350D01*
X410000Y425000D02*
X410900D01*
X389100D02*
X390000D01*
X410000Y422000D02*
Y425000D01*
X390000Y422000D02*
X410000D01*
X390000D02*
Y428000D01*
X410000D01*
Y425000D02*
Y428000D01*
X535000Y425000D02*
X535900D01*
X514100D02*
X515000D01*
X535000Y422000D02*
Y425000D01*
X515000Y422000D02*
X535000D01*
X515000D02*
Y428000D01*
X535000D01*
Y425000D02*
Y428000D01*
X432500Y445650D02*
X442500D01*
Y479350D01*
X432500D02*
X442500D01*
X432500Y445650D02*
Y479350D01*
X517323Y618760D02*
X532677D01*
X517323Y626240D02*
X532677D01*
X517323Y618760D02*
Y626240D01*
Y518760D02*
X532677D01*
X517323Y526240D02*
X532677D01*
X517323Y518760D02*
Y526240D01*
X392323Y668760D02*
X407677D01*
X392323Y676240D02*
X407677D01*
X392323Y668760D02*
Y676240D01*
Y618760D02*
X407677D01*
X392323Y626240D02*
X407677D01*
X392323Y618760D02*
Y626240D01*
X454823Y568760D02*
X470177D01*
X454823Y576240D02*
X470177D01*
X454823Y568760D02*
Y576240D01*
X517323Y668760D02*
X532677D01*
X517323Y676240D02*
X532677D01*
X517323Y668760D02*
Y676240D01*
X329823Y618760D02*
X345177D01*
X329823Y626240D02*
X345177D01*
X329823Y618760D02*
Y626240D01*
X392323Y568760D02*
X407677D01*
X392323Y576240D02*
X407677D01*
X392323Y568760D02*
Y576240D01*
X454823Y618760D02*
X470177D01*
X454823Y626240D02*
X470177D01*
X454823Y618760D02*
Y626240D01*
Y668760D02*
X470177D01*
X454823Y676240D02*
X470177D01*
X454823Y668760D02*
Y676240D01*
X432500Y645650D02*
X442500D01*
Y679350D01*
X432500D02*
X442500D01*
X432500Y645650D02*
Y679350D01*
X517323Y568760D02*
X532677D01*
X517323Y576240D02*
X532677D01*
X517323Y568760D02*
Y576240D01*
X370000Y545650D02*
X380000D01*
Y579350D01*
X370000D02*
X380000D01*
X370000Y545650D02*
Y579350D01*
X307500Y645650D02*
X317500D01*
Y679350D01*
X307500D02*
X317500D01*
X307500Y645650D02*
Y679350D01*
Y545650D02*
X317500D01*
Y579350D01*
X307500D02*
X317500D01*
X307500Y545650D02*
Y579350D01*
X245000Y545650D02*
X255000D01*
Y579350D01*
X245000D02*
X255000D01*
X245000Y545650D02*
Y579350D01*
X517323Y468760D02*
X532677D01*
X517323Y476240D02*
X532677D01*
X517323Y468760D02*
Y476240D01*
X454823Y518760D02*
X470177D01*
X454823Y526240D02*
X470177D01*
X454823Y518760D02*
Y526240D01*
X245000Y645650D02*
X255000D01*
Y679350D01*
X245000D02*
X255000D01*
X245000Y645650D02*
Y679350D01*
X454823Y468760D02*
X470177D01*
X454823Y476240D02*
X470177D01*
X454823Y468760D02*
Y476240D01*
X392323Y518760D02*
X407677D01*
X392323Y526240D02*
X407677D01*
X392323Y518760D02*
Y526240D01*
X267323Y568760D02*
X282677D01*
X267323Y576240D02*
X282677D01*
X267323Y568760D02*
Y576240D01*
Y668760D02*
X282677D01*
X267323Y676240D02*
X282677D01*
X267323Y668760D02*
Y676240D01*
X432500Y595650D02*
X442500D01*
Y629350D01*
X432500D02*
X442500D01*
X432500Y595650D02*
Y629350D01*
X370000Y595650D02*
X380000D01*
Y629350D01*
X370000D02*
X380000D01*
X370000Y595650D02*
Y629350D01*
X432500Y545650D02*
X442500D01*
Y579350D01*
X432500D02*
X442500D01*
X432500Y545650D02*
Y579350D01*
X495000Y595650D02*
X505000D01*
Y629350D01*
X495000D02*
X505000D01*
X495000Y595650D02*
Y629350D01*
X329823Y518760D02*
X345177D01*
X329823Y526240D02*
X345177D01*
X329823Y518760D02*
Y526240D01*
X495000Y495650D02*
X505000D01*
Y529350D01*
X495000D02*
X505000D01*
X495000Y495650D02*
Y529350D01*
X307500Y595650D02*
X317500D01*
Y629350D01*
X307500D02*
X317500D01*
X307500Y595650D02*
Y629350D01*
X267323Y468760D02*
X282677D01*
X267323Y476240D02*
X282677D01*
X267323Y468760D02*
Y476240D01*
X329823Y568760D02*
X345177D01*
X329823Y576240D02*
X345177D01*
X329823Y568760D02*
Y576240D01*
X392323Y468760D02*
X407677D01*
X392323Y476240D02*
X407677D01*
X392323Y468760D02*
Y476240D01*
X370000Y645650D02*
X380000D01*
Y679350D01*
X370000D02*
X380000D01*
X370000Y645650D02*
Y679350D01*
X245000Y595650D02*
X255000D01*
Y629350D01*
X245000D02*
X255000D01*
X245000Y595650D02*
Y629350D01*
X329823Y668760D02*
X345177D01*
X329823Y676240D02*
X345177D01*
X329823Y668760D02*
Y676240D01*
X267323Y518760D02*
X282677D01*
X267323Y526240D02*
X282677D01*
X267323Y518760D02*
Y526240D01*
X495000Y545650D02*
X505000D01*
Y579350D01*
X495000D02*
X505000D01*
X495000Y545650D02*
Y579350D01*
X329823Y468760D02*
X345177D01*
X329823Y476240D02*
X345177D01*
X329823Y468760D02*
Y476240D01*
X495000Y645650D02*
X505000D01*
Y679350D01*
X495000D02*
X505000D01*
X495000Y645650D02*
Y679350D01*
X267323Y618760D02*
X282677D01*
X267323Y626240D02*
X282677D01*
X267323Y618760D02*
Y626240D01*
X432500Y495650D02*
X442500D01*
Y529350D01*
X432500D02*
X442500D01*
X432500Y495650D02*
Y529350D01*
X307500Y495650D02*
X317500D01*
Y529350D01*
X307500D02*
X317500D01*
X307500Y495650D02*
Y529350D01*
X370000Y495650D02*
X380000D01*
Y529350D01*
X370000D02*
X380000D01*
X370000Y495650D02*
Y529350D01*
X245000Y495650D02*
X255000D01*
Y529350D01*
X245000D02*
X255000D01*
X245000Y495650D02*
Y529350D01*
D19*
X271000Y685598D02*
Y679600D01*
X273999D01*
X274999Y680600D01*
Y684598D01*
X273999Y685598D01*
X271000D01*
X276998Y679600D02*
X278997D01*
X277998D01*
Y685598D01*
X276998Y684598D01*
X332500Y685598D02*
Y679600D01*
X335499D01*
X336499Y680600D01*
Y684598D01*
X335499Y685598D01*
X332500D01*
X342497Y679600D02*
X338498D01*
X342497Y683599D01*
Y684598D01*
X341497Y685598D01*
X339498D01*
X338498Y684598D01*
X395000Y685598D02*
Y679600D01*
X397999D01*
X398999Y680600D01*
Y684598D01*
X397999Y685598D01*
X395000D01*
X400998Y684598D02*
X401998Y685598D01*
X403997D01*
X404997Y684598D01*
Y683599D01*
X403997Y682599D01*
X402997D01*
X403997D01*
X404997Y681599D01*
Y680600D01*
X403997Y679600D01*
X401998D01*
X400998Y680600D01*
X457500Y685598D02*
Y679600D01*
X460499D01*
X461499Y680600D01*
Y684598D01*
X460499Y685598D01*
X457500D01*
X466497Y679600D02*
Y685598D01*
X463498Y682599D01*
X467497D01*
X520000Y685598D02*
Y679600D01*
X522999D01*
X523999Y680600D01*
Y684598D01*
X522999Y685598D01*
X520000D01*
X529997D02*
X525998D01*
Y682599D01*
X527997Y683599D01*
X528997D01*
X529997Y682599D01*
Y680600D01*
X528997Y679600D01*
X526998D01*
X525998Y680600D01*
X270000Y635598D02*
Y629600D01*
X272999D01*
X273999Y630600D01*
Y634598D01*
X272999Y635598D01*
X270000D01*
X279997D02*
X277997Y634598D01*
X275998Y632599D01*
Y630600D01*
X276998Y629600D01*
X278997D01*
X279997Y630600D01*
Y631599D01*
X278997Y632599D01*
X275998D01*
X332500Y635598D02*
Y629600D01*
X335499D01*
X336499Y630600D01*
Y634598D01*
X335499Y635598D01*
X332500D01*
X338498D02*
X342497D01*
Y634598D01*
X338498Y630600D01*
Y629600D01*
X395000Y635598D02*
Y629600D01*
X397999D01*
X398999Y630600D01*
Y634598D01*
X397999Y635598D01*
X395000D01*
X400998Y634598D02*
X401998Y635598D01*
X403997D01*
X404997Y634598D01*
Y633599D01*
X403997Y632599D01*
X404997Y631599D01*
Y630600D01*
X403997Y629600D01*
X401998D01*
X400998Y630600D01*
Y631599D01*
X401998Y632599D01*
X400998Y633599D01*
Y634598D01*
X401998Y632599D02*
X403997D01*
X457500Y635598D02*
Y629600D01*
X460499D01*
X461499Y630600D01*
Y634598D01*
X460499Y635598D01*
X457500D01*
X463498Y630600D02*
X464498Y629600D01*
X466497D01*
X467497Y630600D01*
Y634598D01*
X466497Y635598D01*
X464498D01*
X463498Y634598D01*
Y633599D01*
X464498Y632599D01*
X467497D01*
X517500Y635598D02*
Y629600D01*
X520499D01*
X521499Y630600D01*
Y634598D01*
X520499Y635598D01*
X517500D01*
X523498Y629600D02*
X525497D01*
X524498D01*
Y635598D01*
X523498Y634598D01*
X528496D02*
X529496Y635598D01*
X531496D01*
X532495Y634598D01*
Y630600D01*
X531496Y629600D01*
X529496D01*
X528496Y630600D01*
Y634598D01*
X268500Y585598D02*
Y579600D01*
X271499D01*
X272499Y580600D01*
Y584598D01*
X271499Y585598D01*
X268500D01*
X274498Y579600D02*
X276497D01*
X275498D01*
Y585598D01*
X274498Y584598D01*
X279496Y579600D02*
X281496D01*
X280496D01*
Y585598D01*
X279496Y584598D01*
X330000Y585598D02*
Y579600D01*
X332999D01*
X333999Y580600D01*
Y584598D01*
X332999Y585598D01*
X330000D01*
X335998Y579600D02*
X337997D01*
X336998D01*
Y585598D01*
X335998Y584598D01*
X344995Y579600D02*
X340996D01*
X344995Y583599D01*
Y584598D01*
X343995Y585598D01*
X341996D01*
X340996Y584598D01*
X392500Y585598D02*
Y579600D01*
X395499D01*
X396499Y580600D01*
Y584598D01*
X395499Y585598D01*
X392500D01*
X398498Y579600D02*
X400497D01*
X399498D01*
Y585598D01*
X398498Y584598D01*
X403496D02*
X404496Y585598D01*
X406496D01*
X407495Y584598D01*
Y583599D01*
X406496Y582599D01*
X405496D01*
X406496D01*
X407495Y581599D01*
Y580600D01*
X406496Y579600D01*
X404496D01*
X403496Y580600D01*
X455000Y585598D02*
Y579600D01*
X457999D01*
X458999Y580600D01*
Y584598D01*
X457999Y585598D01*
X455000D01*
X460998Y579600D02*
X462997D01*
X461998D01*
Y585598D01*
X460998Y584598D01*
X468996Y579600D02*
Y585598D01*
X465996Y582599D01*
X469995D01*
X517500Y585598D02*
Y579600D01*
X520499D01*
X521499Y580600D01*
Y584598D01*
X520499Y585598D01*
X517500D01*
X523498Y579600D02*
X525497D01*
X524498D01*
Y585598D01*
X523498Y584598D01*
X532495Y585598D02*
X528496D01*
Y582599D01*
X530496Y583599D01*
X531496D01*
X532495Y582599D01*
Y580600D01*
X531496Y579600D01*
X529496D01*
X528496Y580600D01*
X267500Y535598D02*
Y529600D01*
X270499D01*
X271499Y530600D01*
Y534598D01*
X270499Y535598D01*
X267500D01*
X273498Y529600D02*
X275497D01*
X274498D01*
Y535598D01*
X273498Y534598D01*
X282495Y535598D02*
X280496Y534598D01*
X278496Y532599D01*
Y530600D01*
X279496Y529600D01*
X281495D01*
X282495Y530600D01*
Y531599D01*
X281495Y532599D01*
X278496D01*
X330000Y535598D02*
Y529600D01*
X332999D01*
X333999Y530600D01*
Y534598D01*
X332999Y535598D01*
X330000D01*
X335998Y529600D02*
X337997D01*
X336998D01*
Y535598D01*
X335998Y534598D01*
X340996Y535598D02*
X344995D01*
Y534598D01*
X340996Y530600D01*
Y529600D01*
X392500Y535598D02*
Y529600D01*
X395499D01*
X396499Y530600D01*
Y534598D01*
X395499Y535598D01*
X392500D01*
X398498Y529600D02*
X400497D01*
X399498D01*
Y535598D01*
X398498Y534598D01*
X403496D02*
X404496Y535598D01*
X406496D01*
X407495Y534598D01*
Y533599D01*
X406496Y532599D01*
X407495Y531599D01*
Y530600D01*
X406496Y529600D01*
X404496D01*
X403496Y530600D01*
Y531599D01*
X404496Y532599D01*
X403496Y533599D01*
Y534598D01*
X404496Y532599D02*
X406496D01*
X455000Y535598D02*
Y529600D01*
X457999D01*
X458999Y530600D01*
Y534598D01*
X457999Y535598D01*
X455000D01*
X460998Y529600D02*
X462997D01*
X461998D01*
Y535598D01*
X460998Y534598D01*
X465996Y530600D02*
X466996Y529600D01*
X468996D01*
X469995Y530600D01*
Y534598D01*
X468996Y535598D01*
X466996D01*
X465996Y534598D01*
Y533599D01*
X466996Y532599D01*
X469995D01*
X517000Y535598D02*
Y529600D01*
X519999D01*
X520999Y530600D01*
Y534598D01*
X519999Y535598D01*
X517000D01*
X526997Y529600D02*
X522998D01*
X526997Y533599D01*
Y534598D01*
X525997Y535598D01*
X523998D01*
X522998Y534598D01*
X528996D02*
X529996Y535598D01*
X531995D01*
X532995Y534598D01*
Y530600D01*
X531995Y529600D01*
X529996D01*
X528996Y530600D01*
Y534598D01*
X268000Y485598D02*
Y479600D01*
X270999D01*
X271999Y480600D01*
Y484598D01*
X270999Y485598D01*
X268000D01*
X277997Y479600D02*
X273998D01*
X277997Y483599D01*
Y484598D01*
X276997Y485598D01*
X274998D01*
X273998Y484598D01*
X279996Y479600D02*
X281996D01*
X280996D01*
Y485598D01*
X279996Y484598D01*
X329500Y485598D02*
Y479600D01*
X332499D01*
X333499Y480600D01*
Y484598D01*
X332499Y485598D01*
X329500D01*
X339497Y479600D02*
X335498D01*
X339497Y483599D01*
Y484598D01*
X338497Y485598D01*
X336498D01*
X335498Y484598D01*
X345495Y479600D02*
X341496D01*
X345495Y483599D01*
Y484598D01*
X344495Y485598D01*
X342496D01*
X341496Y484598D01*
X392000Y485598D02*
Y479600D01*
X394999D01*
X395999Y480600D01*
Y484598D01*
X394999Y485598D01*
X392000D01*
X401997Y479600D02*
X397998D01*
X401997Y483599D01*
Y484598D01*
X400997Y485598D01*
X398998D01*
X397998Y484598D01*
X403996D02*
X404996Y485598D01*
X406995D01*
X407995Y484598D01*
Y483599D01*
X406995Y482599D01*
X405996D01*
X406995D01*
X407995Y481599D01*
Y480600D01*
X406995Y479600D01*
X404996D01*
X403996Y480600D01*
X454500Y485598D02*
Y479600D01*
X457499D01*
X458499Y480600D01*
Y484598D01*
X457499Y485598D01*
X454500D01*
X464497Y479600D02*
X460498D01*
X464497Y483599D01*
Y484598D01*
X463497Y485598D01*
X461498D01*
X460498Y484598D01*
X469495Y479600D02*
Y485598D01*
X466496Y482599D01*
X470495D01*
X517000Y485598D02*
Y479600D01*
X519999D01*
X520999Y480600D01*
Y484598D01*
X519999Y485598D01*
X517000D01*
X526997Y479600D02*
X522998D01*
X526997Y483599D01*
Y484598D01*
X525997Y485598D01*
X523998D01*
X522998Y484598D01*
X532995Y485598D02*
X528996D01*
Y482599D01*
X530996Y483599D01*
X531995D01*
X532995Y482599D01*
Y480600D01*
X531995Y479600D01*
X529996D01*
X528996Y480600D01*
X521000Y431400D02*
Y437398D01*
X523999D01*
X524999Y436398D01*
Y434399D01*
X523999Y433399D01*
X521000D01*
X522999D02*
X524999Y431400D01*
X526998D02*
X528997D01*
X527998D01*
Y437398D01*
X526998Y436398D01*
X457500Y431400D02*
Y437398D01*
X460499D01*
X461499Y436398D01*
Y434399D01*
X460499Y433399D01*
X457500D01*
X459499D02*
X461499Y431400D01*
X467497D02*
X463498D01*
X467497Y435399D01*
Y436398D01*
X466497Y437398D01*
X464498D01*
X463498Y436398D01*
X395000Y431400D02*
Y437398D01*
X397999D01*
X398999Y436398D01*
Y434399D01*
X397999Y433399D01*
X395000D01*
X396999D02*
X398999Y431400D01*
X400998Y436398D02*
X401998Y437398D01*
X403997D01*
X404997Y436398D01*
Y435399D01*
X403997Y434399D01*
X402997D01*
X403997D01*
X404997Y433399D01*
Y432400D01*
X403997Y431400D01*
X401998D01*
X400998Y432400D01*
X332500Y431400D02*
Y437398D01*
X335499D01*
X336499Y436398D01*
Y434399D01*
X335499Y433399D01*
X332500D01*
X334499D02*
X336499Y431400D01*
X341497D02*
Y437398D01*
X338498Y434399D01*
X342497D01*
X270000Y431400D02*
Y437398D01*
X272999D01*
X273999Y436398D01*
Y434399D01*
X272999Y433399D01*
X270000D01*
X271999D02*
X273999Y431400D01*
X279997Y437398D02*
X275998D01*
Y434399D01*
X277997Y435399D01*
X278997D01*
X279997Y434399D01*
Y432400D01*
X278997Y431400D01*
X276998D01*
X275998Y432400D01*
X249999Y687698D02*
X248999Y688698D01*
X247000D01*
X246000Y687698D01*
Y686699D01*
X247000Y685699D01*
X248999D01*
X249999Y684699D01*
Y683700D01*
X248999Y682700D01*
X247000D01*
X246000Y683700D01*
X251998Y682700D02*
X253997D01*
X252998D01*
Y688698D01*
X251998Y687698D01*
X311499D02*
X310499Y688698D01*
X308500D01*
X307500Y687698D01*
Y686699D01*
X308500Y685699D01*
X310499D01*
X311499Y684699D01*
Y683700D01*
X310499Y682700D01*
X308500D01*
X307500Y683700D01*
X317497Y682700D02*
X313498D01*
X317497Y686699D01*
Y687698D01*
X316497Y688698D01*
X314498D01*
X313498Y687698D01*
X373999D02*
X372999Y688698D01*
X371000D01*
X370000Y687698D01*
Y686699D01*
X371000Y685699D01*
X372999D01*
X373999Y684699D01*
Y683700D01*
X372999Y682700D01*
X371000D01*
X370000Y683700D01*
X375998Y687698D02*
X376998Y688698D01*
X378997D01*
X379997Y687698D01*
Y686699D01*
X378997Y685699D01*
X377997D01*
X378997D01*
X379997Y684699D01*
Y683700D01*
X378997Y682700D01*
X376998D01*
X375998Y683700D01*
X436499Y687698D02*
X435499Y688698D01*
X433500D01*
X432500Y687698D01*
Y686699D01*
X433500Y685699D01*
X435499D01*
X436499Y684699D01*
Y683700D01*
X435499Y682700D01*
X433500D01*
X432500Y683700D01*
X441497Y682700D02*
Y688698D01*
X438498Y685699D01*
X442497D01*
X498999Y687698D02*
X497999Y688698D01*
X496000D01*
X495000Y687698D01*
Y686699D01*
X496000Y685699D01*
X497999D01*
X498999Y684699D01*
Y683700D01*
X497999Y682700D01*
X496000D01*
X495000Y683700D01*
X504997Y688698D02*
X500998D01*
Y685699D01*
X502997Y686699D01*
X503997D01*
X504997Y685699D01*
Y683700D01*
X503997Y682700D01*
X501998D01*
X500998Y683700D01*
X248999Y637698D02*
X247999Y638698D01*
X246000D01*
X245000Y637698D01*
Y636699D01*
X246000Y635699D01*
X247999D01*
X248999Y634699D01*
Y633700D01*
X247999Y632700D01*
X246000D01*
X245000Y633700D01*
X254997Y638698D02*
X252997Y637698D01*
X250998Y635699D01*
Y633700D01*
X251998Y632700D01*
X253997D01*
X254997Y633700D01*
Y634699D01*
X253997Y635699D01*
X250998D01*
X311499Y637698D02*
X310499Y638698D01*
X308500D01*
X307500Y637698D01*
Y636699D01*
X308500Y635699D01*
X310499D01*
X311499Y634699D01*
Y633700D01*
X310499Y632700D01*
X308500D01*
X307500Y633700D01*
X313498Y638698D02*
X317497D01*
Y637698D01*
X313498Y633700D01*
Y632700D01*
X373999Y637698D02*
X372999Y638698D01*
X371000D01*
X370000Y637698D01*
Y636699D01*
X371000Y635699D01*
X372999D01*
X373999Y634699D01*
Y633700D01*
X372999Y632700D01*
X371000D01*
X370000Y633700D01*
X375998Y637698D02*
X376998Y638698D01*
X378997D01*
X379997Y637698D01*
Y636699D01*
X378997Y635699D01*
X379997Y634699D01*
Y633700D01*
X378997Y632700D01*
X376998D01*
X375998Y633700D01*
Y634699D01*
X376998Y635699D01*
X375998Y636699D01*
Y637698D01*
X376998Y635699D02*
X378997D01*
X436499Y637698D02*
X435499Y638698D01*
X433500D01*
X432500Y637698D01*
Y636699D01*
X433500Y635699D01*
X435499D01*
X436499Y634699D01*
Y633700D01*
X435499Y632700D01*
X433500D01*
X432500Y633700D01*
X438498D02*
X439498Y632700D01*
X441497D01*
X442497Y633700D01*
Y637698D01*
X441497Y638698D01*
X439498D01*
X438498Y637698D01*
Y636699D01*
X439498Y635699D01*
X442497D01*
X496499Y637698D02*
X495499Y638698D01*
X493500D01*
X492500Y637698D01*
Y636699D01*
X493500Y635699D01*
X495499D01*
X496499Y634699D01*
Y633700D01*
X495499Y632700D01*
X493500D01*
X492500Y633700D01*
X498498Y632700D02*
X500497D01*
X499498D01*
Y638698D01*
X498498Y637698D01*
X503496D02*
X504496Y638698D01*
X506496D01*
X507495Y637698D01*
Y633700D01*
X506496Y632700D01*
X504496D01*
X503496Y633700D01*
Y637698D01*
X247499Y587698D02*
X246499Y588698D01*
X244500D01*
X243500Y587698D01*
Y586699D01*
X244500Y585699D01*
X246499D01*
X247499Y584699D01*
Y583700D01*
X246499Y582700D01*
X244500D01*
X243500Y583700D01*
X249498Y582700D02*
X251497D01*
X250498D01*
Y588698D01*
X249498Y587698D01*
X254496Y582700D02*
X256496D01*
X255496D01*
Y588698D01*
X254496Y587698D01*
X308999D02*
X307999Y588698D01*
X306000D01*
X305000Y587698D01*
Y586699D01*
X306000Y585699D01*
X307999D01*
X308999Y584699D01*
Y583700D01*
X307999Y582700D01*
X306000D01*
X305000Y583700D01*
X310998Y582700D02*
X312997D01*
X311998D01*
Y588698D01*
X310998Y587698D01*
X319995Y582700D02*
X315996D01*
X319995Y586699D01*
Y587698D01*
X318995Y588698D01*
X316996D01*
X315996Y587698D01*
X371499D02*
X370499Y588698D01*
X368500D01*
X367500Y587698D01*
Y586699D01*
X368500Y585699D01*
X370499D01*
X371499Y584699D01*
Y583700D01*
X370499Y582700D01*
X368500D01*
X367500Y583700D01*
X373498Y582700D02*
X375497D01*
X374498D01*
Y588698D01*
X373498Y587698D01*
X378496D02*
X379496Y588698D01*
X381495D01*
X382495Y587698D01*
Y586699D01*
X381495Y585699D01*
X380496D01*
X381495D01*
X382495Y584699D01*
Y583700D01*
X381495Y582700D01*
X379496D01*
X378496Y583700D01*
X433999Y587698D02*
X432999Y588698D01*
X431000D01*
X430000Y587698D01*
Y586699D01*
X431000Y585699D01*
X432999D01*
X433999Y584699D01*
Y583700D01*
X432999Y582700D01*
X431000D01*
X430000Y583700D01*
X435998Y582700D02*
X437997D01*
X436998D01*
Y588698D01*
X435998Y587698D01*
X443996Y582700D02*
Y588698D01*
X440996Y585699D01*
X444995D01*
X496499Y587698D02*
X495499Y588698D01*
X493500D01*
X492500Y587698D01*
Y586699D01*
X493500Y585699D01*
X495499D01*
X496499Y584699D01*
Y583700D01*
X495499Y582700D01*
X493500D01*
X492500Y583700D01*
X498498Y582700D02*
X500497D01*
X499498D01*
Y588698D01*
X498498Y587698D01*
X507495Y588698D02*
X503496D01*
Y585699D01*
X505496Y586699D01*
X506496D01*
X507495Y585699D01*
Y583700D01*
X506496Y582700D01*
X504496D01*
X503496Y583700D01*
X246499Y537698D02*
X245499Y538698D01*
X243500D01*
X242500Y537698D01*
Y536699D01*
X243500Y535699D01*
X245499D01*
X246499Y534699D01*
Y533700D01*
X245499Y532700D01*
X243500D01*
X242500Y533700D01*
X248498Y532700D02*
X250497D01*
X249498D01*
Y538698D01*
X248498Y537698D01*
X257495Y538698D02*
X255496Y537698D01*
X253496Y535699D01*
Y533700D01*
X254496Y532700D01*
X256495D01*
X257495Y533700D01*
Y534699D01*
X256495Y535699D01*
X253496D01*
X308999Y537698D02*
X307999Y538698D01*
X306000D01*
X305000Y537698D01*
Y536699D01*
X306000Y535699D01*
X307999D01*
X308999Y534699D01*
Y533700D01*
X307999Y532700D01*
X306000D01*
X305000Y533700D01*
X310998Y532700D02*
X312997D01*
X311998D01*
Y538698D01*
X310998Y537698D01*
X315996Y538698D02*
X319995D01*
Y537698D01*
X315996Y533700D01*
Y532700D01*
X371499Y537698D02*
X370499Y538698D01*
X368500D01*
X367500Y537698D01*
Y536699D01*
X368500Y535699D01*
X370499D01*
X371499Y534699D01*
Y533700D01*
X370499Y532700D01*
X368500D01*
X367500Y533700D01*
X373498Y532700D02*
X375497D01*
X374498D01*
Y538698D01*
X373498Y537698D01*
X378496D02*
X379496Y538698D01*
X381495D01*
X382495Y537698D01*
Y536699D01*
X381495Y535699D01*
X382495Y534699D01*
Y533700D01*
X381495Y532700D01*
X379496D01*
X378496Y533700D01*
Y534699D01*
X379496Y535699D01*
X378496Y536699D01*
Y537698D01*
X379496Y535699D02*
X381495D01*
X433999Y537698D02*
X432999Y538698D01*
X431000D01*
X430000Y537698D01*
Y536699D01*
X431000Y535699D01*
X432999D01*
X433999Y534699D01*
Y533700D01*
X432999Y532700D01*
X431000D01*
X430000Y533700D01*
X435998Y532700D02*
X437997D01*
X436998D01*
Y538698D01*
X435998Y537698D01*
X440996Y533700D02*
X441996Y532700D01*
X443996D01*
X444995Y533700D01*
Y537698D01*
X443996Y538698D01*
X441996D01*
X440996Y537698D01*
Y536699D01*
X441996Y535699D01*
X444995D01*
X495999Y537698D02*
X494999Y538698D01*
X493000D01*
X492000Y537698D01*
Y536699D01*
X493000Y535699D01*
X494999D01*
X495999Y534699D01*
Y533700D01*
X494999Y532700D01*
X493000D01*
X492000Y533700D01*
X501997Y532700D02*
X497998D01*
X501997Y536699D01*
Y537698D01*
X500997Y538698D01*
X498998D01*
X497998Y537698D01*
X503996D02*
X504996Y538698D01*
X506995D01*
X507995Y537698D01*
Y533700D01*
X506995Y532700D01*
X504996D01*
X503996Y533700D01*
Y537698D01*
X246999Y487698D02*
X245999Y488698D01*
X244000D01*
X243000Y487698D01*
Y486699D01*
X244000Y485699D01*
X245999D01*
X246999Y484699D01*
Y483700D01*
X245999Y482700D01*
X244000D01*
X243000Y483700D01*
X252997Y482700D02*
X248998D01*
X252997Y486699D01*
Y487698D01*
X251997Y488698D01*
X249998D01*
X248998Y487698D01*
X254996Y482700D02*
X256996D01*
X255996D01*
Y488698D01*
X254996Y487698D01*
X308499D02*
X307499Y488698D01*
X305500D01*
X304500Y487698D01*
Y486699D01*
X305500Y485699D01*
X307499D01*
X308499Y484699D01*
Y483700D01*
X307499Y482700D01*
X305500D01*
X304500Y483700D01*
X314497Y482700D02*
X310498D01*
X314497Y486699D01*
Y487698D01*
X313497Y488698D01*
X311498D01*
X310498Y487698D01*
X320495Y482700D02*
X316496D01*
X320495Y486699D01*
Y487698D01*
X319495Y488698D01*
X317496D01*
X316496Y487698D01*
X370999D02*
X369999Y488698D01*
X368000D01*
X367000Y487698D01*
Y486699D01*
X368000Y485699D01*
X369999D01*
X370999Y484699D01*
Y483700D01*
X369999Y482700D01*
X368000D01*
X367000Y483700D01*
X376997Y482700D02*
X372998D01*
X376997Y486699D01*
Y487698D01*
X375997Y488698D01*
X373998D01*
X372998Y487698D01*
X378996D02*
X379996Y488698D01*
X381995D01*
X382995Y487698D01*
Y486699D01*
X381995Y485699D01*
X380995D01*
X381995D01*
X382995Y484699D01*
Y483700D01*
X381995Y482700D01*
X379996D01*
X378996Y483700D01*
X433499Y487698D02*
X432499Y488698D01*
X430500D01*
X429500Y487698D01*
Y486699D01*
X430500Y485699D01*
X432499D01*
X433499Y484699D01*
Y483700D01*
X432499Y482700D01*
X430500D01*
X429500Y483700D01*
X439497Y482700D02*
X435498D01*
X439497Y486699D01*
Y487698D01*
X438497Y488698D01*
X436498D01*
X435498Y487698D01*
X444495Y482700D02*
Y488698D01*
X441496Y485699D01*
X445495D01*
X495999Y487698D02*
X494999Y488698D01*
X493000D01*
X492000Y487698D01*
Y486699D01*
X493000Y485699D01*
X494999D01*
X495999Y484699D01*
Y483700D01*
X494999Y482700D01*
X493000D01*
X492000Y483700D01*
X501997Y482700D02*
X497998D01*
X501997Y486699D01*
Y487698D01*
X500997Y488698D01*
X498998D01*
X497998Y487698D01*
X507995Y488698D02*
X503996D01*
Y485699D01*
X505996Y486699D01*
X506995D01*
X507995Y485699D01*
Y483700D01*
X506995Y482700D01*
X504996D01*
X503996Y483700D01*
X267500Y412500D02*
X269499D01*
X268500D01*
Y418498D01*
X267500Y417498D01*
X272498D02*
X273498Y418498D01*
X275497D01*
X276497Y417498D01*
Y413500D01*
X275497Y412500D01*
X273498D01*
X272498Y413500D01*
Y417498D01*
X278496Y418498D02*
Y412500D01*
Y414499D01*
X282495Y418498D01*
X279496Y415499D01*
X282495Y412500D01*
X330000D02*
X331999D01*
X331000D01*
Y418498D01*
X330000Y417498D01*
X334998D02*
X335998Y418498D01*
X337997D01*
X338997Y417498D01*
Y413500D01*
X337997Y412500D01*
X335998D01*
X334998Y413500D01*
Y417498D01*
X340996Y418498D02*
Y412500D01*
Y414499D01*
X344995Y418498D01*
X341996Y415499D01*
X344995Y412500D01*
X392500D02*
X394499D01*
X393500D01*
Y418498D01*
X392500Y417498D01*
X397498D02*
X398498Y418498D01*
X400497D01*
X401497Y417498D01*
Y413500D01*
X400497Y412500D01*
X398498D01*
X397498Y413500D01*
Y417498D01*
X403496Y418498D02*
Y412500D01*
Y414499D01*
X407495Y418498D01*
X404496Y415499D01*
X407495Y412500D01*
X455000D02*
X456999D01*
X456000D01*
Y418498D01*
X455000Y417498D01*
X459998D02*
X460998Y418498D01*
X462997D01*
X463997Y417498D01*
Y413500D01*
X462997Y412500D01*
X460998D01*
X459998Y413500D01*
Y417498D01*
X465996Y418498D02*
Y412500D01*
Y414499D01*
X469995Y418498D01*
X466996Y415499D01*
X469995Y412500D01*
X517500D02*
X519499D01*
X518500D01*
Y418498D01*
X517500Y417498D01*
X522498D02*
X523498Y418498D01*
X525497D01*
X526497Y417498D01*
Y413500D01*
X525497Y412500D01*
X523498D01*
X522498Y413500D01*
Y417498D01*
X528496Y418498D02*
Y412500D01*
Y414499D01*
X532495Y418498D01*
X529496Y415499D01*
X532495Y412500D01*
X212500Y662500D02*
Y668498D01*
X215499D01*
X216499Y667498D01*
Y665499D01*
X215499Y664499D01*
X212500D01*
X214499D02*
X216499Y662500D01*
X219498D02*
X221497D01*
X222497Y663500D01*
Y665499D01*
X221497Y666499D01*
X219498D01*
X218498Y665499D01*
Y663500D01*
X219498Y662500D01*
X224496Y666499D02*
Y663500D01*
X225496Y662500D01*
X226496Y663500D01*
X227495Y662500D01*
X228495Y663500D01*
Y666499D01*
X236492Y662500D02*
X238492D01*
X237492D01*
Y668498D01*
X236492Y667498D01*
X212500Y612500D02*
Y618498D01*
X215499D01*
X216499Y617498D01*
Y615499D01*
X215499Y614499D01*
X212500D01*
X214499D02*
X216499Y612500D01*
X219498D02*
X221497D01*
X222497Y613500D01*
Y615499D01*
X221497Y616499D01*
X219498D01*
X218498Y615499D01*
Y613500D01*
X219498Y612500D01*
X224496Y616499D02*
Y613500D01*
X225496Y612500D01*
X226496Y613500D01*
X227495Y612500D01*
X228495Y613500D01*
Y616499D01*
X240491Y612500D02*
X236492D01*
X240491Y616499D01*
Y617498D01*
X239491Y618498D01*
X237492D01*
X236492Y617498D01*
X212500Y562500D02*
Y568498D01*
X215499D01*
X216499Y567498D01*
Y565499D01*
X215499Y564499D01*
X212500D01*
X214499D02*
X216499Y562500D01*
X219498D02*
X221497D01*
X222497Y563500D01*
Y565499D01*
X221497Y566499D01*
X219498D01*
X218498Y565499D01*
Y563500D01*
X219498Y562500D01*
X224496Y566499D02*
Y563500D01*
X225496Y562500D01*
X226496Y563500D01*
X227495Y562500D01*
X228495Y563500D01*
Y566499D01*
X236492Y567498D02*
X237492Y568498D01*
X239491D01*
X240491Y567498D01*
Y566499D01*
X239491Y565499D01*
X238492D01*
X239491D01*
X240491Y564499D01*
Y563500D01*
X239491Y562500D01*
X237492D01*
X236492Y563500D01*
X212500Y512500D02*
Y518498D01*
X215499D01*
X216499Y517498D01*
Y515499D01*
X215499Y514499D01*
X212500D01*
X214499D02*
X216499Y512500D01*
X219498D02*
X221497D01*
X222497Y513500D01*
Y515499D01*
X221497Y516499D01*
X219498D01*
X218498Y515499D01*
Y513500D01*
X219498Y512500D01*
X224496Y516499D02*
Y513500D01*
X225496Y512500D01*
X226496Y513500D01*
X227495Y512500D01*
X228495Y513500D01*
Y516499D01*
X239491Y512500D02*
Y518498D01*
X236492Y515499D01*
X240491D01*
X212500Y462500D02*
Y468498D01*
X215499D01*
X216499Y467498D01*
Y465499D01*
X215499Y464499D01*
X212500D01*
X214499D02*
X216499Y462500D01*
X219498D02*
X221497D01*
X222497Y463500D01*
Y465499D01*
X221497Y466499D01*
X219498D01*
X218498Y465499D01*
Y463500D01*
X219498Y462500D01*
X224496Y466499D02*
Y463500D01*
X225496Y462500D01*
X226496Y463500D01*
X227495Y462500D01*
X228495Y463500D01*
Y466499D01*
X240491Y468498D02*
X236492D01*
Y465499D01*
X238492Y466499D01*
X239491D01*
X240491Y465499D01*
Y463500D01*
X239491Y462500D01*
X237492D01*
X236492Y463500D01*
X221499Y412498D02*
X220499Y413498D01*
X218500D01*
X217500Y412498D01*
Y408500D01*
X218500Y407500D01*
X220499D01*
X221499Y408500D01*
Y410499D01*
X219499D01*
X223498Y407500D02*
Y413498D01*
X227497Y407500D01*
Y413498D01*
X229496D02*
Y407500D01*
X232495D01*
X233495Y408500D01*
Y412498D01*
X232495Y413498D01*
X229496D01*
X278999Y392498D02*
X277999Y393498D01*
X276000D01*
X275000Y392498D01*
Y388500D01*
X276000Y387500D01*
X277999D01*
X278999Y388500D01*
X281998Y387500D02*
X283997D01*
X284997Y388500D01*
Y390499D01*
X283997Y391499D01*
X281998D01*
X280998Y390499D01*
Y388500D01*
X281998Y387500D01*
X286996D02*
X288996D01*
X287996D01*
Y393498D01*
X286996D01*
X297993Y387500D02*
X299992D01*
X298992D01*
Y393498D01*
X297993Y392498D01*
X341499D02*
X340499Y393498D01*
X338500D01*
X337500Y392498D01*
Y388500D01*
X338500Y387500D01*
X340499D01*
X341499Y388500D01*
X344498Y387500D02*
X346497D01*
X347497Y388500D01*
Y390499D01*
X346497Y391499D01*
X344498D01*
X343498Y390499D01*
Y388500D01*
X344498Y387500D01*
X349496D02*
X351496D01*
X350496D01*
Y393498D01*
X349496D01*
X364491Y387500D02*
X360493D01*
X364491Y391499D01*
Y392498D01*
X363492Y393498D01*
X361492D01*
X360493Y392498D01*
X403999D02*
X402999Y393498D01*
X401000D01*
X400000Y392498D01*
Y388500D01*
X401000Y387500D01*
X402999D01*
X403999Y388500D01*
X406998Y387500D02*
X408997D01*
X409997Y388500D01*
Y390499D01*
X408997Y391499D01*
X406998D01*
X405998Y390499D01*
Y388500D01*
X406998Y387500D01*
X411996D02*
X413996D01*
X412996D01*
Y393498D01*
X411996D01*
X422993Y392498D02*
X423992Y393498D01*
X425992D01*
X426991Y392498D01*
Y391499D01*
X425992Y390499D01*
X424992D01*
X425992D01*
X426991Y389499D01*
Y388500D01*
X425992Y387500D01*
X423992D01*
X422993Y388500D01*
X466499Y392498D02*
X465499Y393498D01*
X463500D01*
X462500Y392498D01*
Y388500D01*
X463500Y387500D01*
X465499D01*
X466499Y388500D01*
X469498Y387500D02*
X471497D01*
X472497Y388500D01*
Y390499D01*
X471497Y391499D01*
X469498D01*
X468498Y390499D01*
Y388500D01*
X469498Y387500D01*
X474496D02*
X476496D01*
X475496D01*
Y393498D01*
X474496D01*
X488492Y387500D02*
Y393498D01*
X485493Y390499D01*
X489491D01*
X528999Y392498D02*
X527999Y393498D01*
X526000D01*
X525000Y392498D01*
Y388500D01*
X526000Y387500D01*
X527999D01*
X528999Y388500D01*
X531998Y387500D02*
X533997D01*
X534997Y388500D01*
Y390499D01*
X533997Y391499D01*
X531998D01*
X530998Y390499D01*
Y388500D01*
X531998Y387500D01*
X536996D02*
X538996D01*
X537996D01*
Y393498D01*
X536996D01*
X551991D02*
X547993D01*
Y390499D01*
X549992Y391499D01*
X550992D01*
X551991Y390499D01*
Y388500D01*
X550992Y387500D01*
X548992D01*
X547993Y388500D01*
D20*
X531496Y622500D02*
D03*
Y522500D02*
D03*
X406496Y672500D02*
D03*
Y622500D02*
D03*
X468996Y572500D02*
D03*
X531496Y672500D02*
D03*
X343996Y622500D02*
D03*
X406496Y572500D02*
D03*
X468996Y622500D02*
D03*
Y672500D02*
D03*
X531496Y572500D02*
D03*
Y472500D02*
D03*
X468996Y522500D02*
D03*
Y472500D02*
D03*
X406496Y522500D02*
D03*
X281496Y572500D02*
D03*
Y672500D02*
D03*
X343996Y522500D02*
D03*
X281496Y472500D02*
D03*
X343996Y572500D02*
D03*
X406496Y472500D02*
D03*
X343996Y672500D02*
D03*
X281496Y522500D02*
D03*
X343996Y472500D02*
D03*
X281496Y622500D02*
D03*
M02*
